<svg xmlns="http://www.w3.org/2000/svg" width="32" height="32" viewBox="0 0 32 32"><g fill="#828282"><path d="M30.765 7.262L19.222.747c-1.57-.887-4.27-.888-5.845 0L1.834 7.262C.95 7.762.466 8.46.466 9.23s.486 1.467 1.368 1.965l11.543 6.516c.786.45 1.824.69 2.922.69s2.13-.24 2.92-.69l11.54-6.51c.88-.493 1.37-1.19 1.37-1.96s-.49-1.47-1.37-1.968zm-.526 3.003L18.69 16.78c-1.238.7-3.556.7-4.794 0L2.36 10.266c-.525-.296-.825-.674-.825-1.036 0-.364.3-.74.824-1.038L13.9 1.676c.62-.35 1.493-.55 2.396-.55.904 0 1.778.2 2.397.55l11.543 6.516c.524.296.825.674.825 1.037 0 .36-.3.74-.82 1.03z"/><path d="M30.765 14.1a.536.536 0 0 0-.526.93c.52.296.82.674.82 1.036s-.3.74-.83 1.036l-11.54 6.516c-1.298.733-3.494.734-4.794 0L2.36 17.102c-.525-.296-.825-.674-.825-1.036s.3-.74.824-1.036a.534.534 0 1 0-.53-.93c-.88.496-1.37 1.195-1.37 1.965s.482 1.47 1.365 1.967l11.544 6.516c.82.46 1.87.693 2.922.693s2.104-.23 2.923-.69L30.76 18.04c.883-.497 1.37-1.196 1.37-1.966s-.487-1.47-1.37-1.967z"/><path d="M30.765 20.804a.536.536 0 0 0-.526.93c.52.297.82.675.82 1.037 0 .37-.3.74-.83 1.04l-11.54 6.52c-1.298.734-3.494.735-4.794 0l-11.54-6.52c-.525-.294-.825-.672-.825-1.035 0-.36.3-.74.825-1.035a.534.534 0 1 0-.53-.93C.953 21.3.465 22 .465 22.77s.487 1.47 1.37 1.968l11.543 6.516c.82.462 1.87.694 2.922.694 1.05 0 2.1-.23 2.92-.694l11.543-6.516c.883-.5 1.37-1.197 1.37-1.967s-.488-1.46-1.37-1.96z"/></g></svg>