<svg xmlns="http://www.w3.org/2000/svg" width="22" height="32" viewBox="0 0 22 32"><path d="M11 0C5.71 0 0 4.206 0 11c0 3.353 1.334 6.174 3.896 8.312a.478.478 0 0 0 .092.088c1.9 2.062 1.997 2.454 2.01 3.36.006.36.003.466 0 .524l-.004.21c-.015.45-.038 1.208.9 1.494l8.093 1.78a.5.5 0 1 0 .214-.977l-8.053-1.77c-.155-.044-.168-.05-.154-.495l.003-.19s.01-.08.002-.587c-.02-1.27-.295-1.882-2.31-4.06a.5.5 0 0 0-.137-.117C2.195 16.566 1 14.02 1 11 1 4.823 6.19 1 11 1c4.916 0 10 3.74 10 10 0 3.978-1.928 6.17-3.518 7.55a.485.485 0 0 0-.147.11c-2.037 2.204-2.313 2.817-2.332 4.086v.137c-.004.076-.015.118-.014.134a19.508 19.508 0 0 1-.12-.017l-4.196-.987a.5.5 0 0 0-.23.974l4.145.972c.054.02.552.18.972-.116.183-.13.396-.382.434-.866L16 22.93v-.17c.014-.9.108-1.293 2.006-3.355l.026-.022C20.702 17.145 22 14.4 22 11c0-6.885-5.593-11-11-11zm4 29.5c.23 0 .435-.157.487-.39a.5.5 0 0 0-.377-.598l-8-1.814a.5.5 0 0 0-.22.975l8 1.814a.48.48 0 0 0 .11.013zm-7.39.054a.5.5 0 0 0-.22.975l6.5 1.456a.5.5 0 1 0 .22-.975l-6.5-1.457z" fill="#828282"/></svg>