<svg xmlns="http://www.w3.org/2000/svg" width="42" height="32" viewBox="0 0 42 32"><path fill="#828282" d="M39 0c-1.654 0-3 1.346-3 3 0 .888.396 1.68 1.01 2.23l-8.8 14.03c-.37-.165-.78-.26-1.21-.26-.868 0-1.644.376-2.193.967l-9.073-5.745c.168-.374.266-.786.266-1.222 0-1.654-1.346-3-3-3s-3 1.346-3 3c0 .904.41 1.706 1.044 2.256L4.15 26.23A2.972 2.972 0 0 0 3 26c-1.654 0-3 1.346-3 3s1.346 3 3 3 3-1.346 3-3a2.98 2.98 0 0 0-1.01-2.228l6.904-10.99a2.954 2.954 0 0 0 3.282-.73l9.078 5.75A2.98 2.98 0 0 0 24 22c0 1.654 1.346 3 3 3s3-1.346 3-3c0-.863-.37-1.636-.957-2.184l8.81-14.046c.354.147.74.23 1.147.23 1.654 0 3-1.346 3-3s-1.346-3-3-3zM5 29c0 1.103-.897 2-2 2s-2-.897-2-2 .897-2 2-2 2 .897 2 2zm8-14c-1.103 0-2-.897-2-2s.897-2 2-2 2 .897 2 2-.897 2-2 2zm14 9c-1.103 0-2-.897-2-2s.897-2 2-2 2 .897 2 2-.897 2-2 2zM39 5c-1.103 0-2-.897-2-2s.897-2 2-2 2 .897 2 2-.897 2-2 2z"/></svg>