<svg xmlns="http://www.w3.org/2000/svg" width="32" height="32" viewBox="0 0 32 32"><g fill="#828282"><path d="M16-.034C7.16-.034-.035 7.158-.035 16S7.16 32.034 16 32.034 32.035 24.842 32.035 16 24.84-.034 16-.034zm0 31C7.748 30.966 1.035 24.252 1.035 16S7.748 1.034 16 1.034 30.965 7.748 30.965 16 24.252 30.966 16 30.966z"/><path d="M16.5 6.053a.553.553 0 0 0 .553-.553v-2a.553.553 0 0 0-1.106 0v2c0 .306.248.553.553.553zm-11 8.894h-2a.553.553 0 0 0 0 1.106h2a.553.553 0 0 0 0-1.106zm20.447.553c0 .306.248.553.553.553h2a.553.553 0 0 0 0-1.106h-2a.553.553 0 0 0-.553.553zM8.575 10.128a.552.552 0 0 0 .39-.943L7.392 7.61a.552.552 0 1 0-.78.78l1.575 1.575c.107.11.25.163.39.163zM23.89 21.11a.552.552 0 1 0-.78.78l1.5 1.5a.55.55 0 0 0 .782 0 .552.552 0 0 0 0-.78l-1.5-1.5zm1-13.22a.552.552 0 1 0-.78-.78l-1.575 1.575a.552.552 0 0 0 .782.78L24.89 7.89zM8.61 21.61l-1.5 1.5a.552.552 0 0 0 .78.78l1.5-1.5a.552.552 0 1 0-.78-.78zM19.5 24h-7c-.89-.034-1.535.61-1.535 1.5v.957c0 .898.674 1.603 1.535 1.543h7c.86.06 1.535-.645 1.535-1.543V25.5c0-.89-.646-1.534-1.535-1.5zm.465 2.457c0 .257-.146.534-.465.568h-7c-.32-.034-.465-.312-.465-.025v-.957c0-.84.17-1.01.465-1.043h7c.296.034.465.204.465.5v.957zM16 18.667a2.65 2.65 0 0 0 1.885-.78 2.67 2.67 0 0 0 .34-3.356l2.653-2.65a.534.534 0 0 0-.756-.756l-2.656 2.656c-1.025-.656-2.473-.544-3.35.335A2.67 2.67 0 0 0 16 18.667zm-.942-3.61a1.334 1.334 0 0 1 1.885 1.886c-.503.504-1.38.504-1.885 0a1.334 1.334 0 0 1 0-1.885z"/></g></svg>